<svg style="position: absolute; width: 0; height: 0; overflow: hidden;" aria-hidden="true" version="1.1" xmlns="http://www.w3.org/2000/svg" xmlns:xlink="http://www.w3.org/1999/xlink">
    <style>
        .default-palette, .palette0 {color: currentColor;
            --color0: #2e2f42;
        }
    </style>
    <defs>
        <symbol id="toggle" viewBox="0 0 17 15" fill="var(--color0, #2e2f42)" clip-rule="evenodd" fill-rule="evenodd">
            <path d="M0 1.2c0-0.3183 0.1264-0.6235 0.3515-0.8485S0.8817 0 1.2 0h14.4c0.3183 0 0.6235 0.1264 0.8485 0.3515C16.6736 0.5765 16.8 0.8817 16.8 1.2s-0.1264 0.6235-0.3515 0.8485C16.2235 2.2736 15.9183 2.4 15.6 2.4H1.2c-0.3183 0-0.6235-0.1264-0.8485-0.3515C0.1264 1.8235 0 1.5183 0 1.2z" />
            <path d="M0 7.2c0-0.3183 0.1264-0.6235 0.3515-0.8485C0.5765 6.1264 0.8817 6 1.2 6h14.4c0.3183 0 0.6235 0.1264 0.8485 0.3515C16.6736 6.5765 16.8 6.8817 16.8 7.2s-0.1264 0.6235-0.3515 0.8485C16.2235 8.2736 15.9183 8.4 15.6 8.4H1.2c-0.3183 0-0.6235-0.1264-0.8485-0.3515C0.1264 7.8235 0 7.5183 0 7.2z" />
            <path d="M0 13.2c0-0.3183 0.1264-0.6235 0.3515-0.8485C0.5765 12.1264 0.8817 12 1.2 12h14.4c0.3183 0 0.6235 0.1264 0.8485 0.3515C16.6736 12.5765 16.8 12.8817 16.8 13.2s-0.1264 0.6235-0.3515 0.8485C16.2235 14.2736 15.9183 14.4 15.6 14.4H1.2c-0.3183 0-0.6235-0.1264-0.8485-0.3515C0.1264 13.8235 0 13.5183 0 13.2z" />
        </symbol>
    </defs>
</svg>